#!OML:ASF F:\VICON\USERDATA\INSTALL\rory3\rory3.ASF
:FULLY-SPECIFIED
:DEGREES
159
root 0.5734213136573728 17.8019374017226 41.1708418098043 2.237000597396875 1.6048816800241745 -0.15286710414072013
lfemur -11.745866093741196 -0.00202990295219152 -22.23828064271416
ltibia 48.4481323777923
lfoot 8.327355778758436 -10.228914116975751
ltoes -9.106459265489535
rfemur -23.41151363816286 2.901471116082058 26.86185433045396
rtibia 52.69420317613281
rfoot -0.9411011478804844 -6.507823872915303
rtoes -3.3466777568972894
lowerback 13.123694885588357 -0.2829760358329697 -0.36702460587925034
upperback -0.47530665248362974 0.8170922015879384 1.202847811075925
thorax -8.229334319143225 0.6570409972098659 1.5154608554936904
lowerneck -18.510805246007838 -3.3159770543123797 -2.3175830564947053
upperneck 14.035596558612866 -4.825343524057689 2.980198216620971
head 7.440992695397165 -2.3495084558819843 0.7552716899933463
lclavicle 3.0724827264545893e-16 -4.3067221206564905e-16
lhumerus -42.62055787691183 -14.84755678398023 98.09213162728595
lradius 109.46197455660524
lwrist 32.07826343412495
lhand -25.89148640206679 3.177948583413087
lfingers 7.125020000000001
lthumb 0.3959028789094966 33.03427636247852
rclavicle 3.0728743657241976e-16 -4.3064985682852227e-16
rhumerus -47.49793325398465 8.229986567125025 -96.53558295802833
rradius 104.05573918757182
rwrist -19.35046366263341
rhand -18.462777310861988 37.50248200123557
rfingers 7.125020000000001
rthumb 7.98327746493329 7.46206844306261
160
root 0.5558770028739168 17.74910239911853 38.85229291284901 2.0191057547554445 1.205024205175615 -0.327512392525247
lfemur -12.464960355354787 0.02632140879733047 -22.098596614981762
ltibia 49.824441026350165
lfoot 7.888966943785448 -10.950050534692847
ltoes -9.675758750779512
rfemur -23.18427245553238 3.0659176876364613 26.975537853527523
rtibia 52.440767265069915
rfoot -1.0170681714666383 -6.44737875717114
rtoes -3.6735658083914977
lowerback 13.111747494474143 -0.34786793482108436 -0.4370253456812112
upperback -0.47404266745006357 0.7288863327787554 1.206502001923106
thorax -8.19371486211925 0.6962272417867901 1.6254664889588666
lowerneck -18.647573939687327 -3.3847580840326965 -2.368896017768029
upperneck 14.00362662924713 -4.745852592401029 2.9452179974150647
head 7.437274078753164 -2.3529553173209363 0.744251939078887
lclavicle 3.0724827264545893e-16 -4.3067221206564905e-16
lhumerus -42.63624272816371 -14.684172987033387 98.0918751683967
lradius 109.73331320865242
lwrist 32.16170420166789
lhand -25.92470330788882 3.1152639748037045
lfingers 7.125020000000001
lthumb 0.41043572518481397 33.06687084324278
rclavicle 3.0728743657241976e-16 -4.3064985682852227e-16
rhumerus -48.20129193245082 8.054398593693264 -96.5476155972369
rradius 104.17481191452652
rwrist -19.428844933992153
rhand -18.47239039998818 37.5116346782963
rfingers 7.125020000000001
rthumb 7.977735942352844 7.482254154072132
161
root 0.5950658716753037 17.860809066798158 43.53140071344413 2.3294729983374505 1.9622527461614632 0.1636075160148751
lfemur -12.795482737565205 0.11532306578030471 -21.980626208683148
ltibia 50.99356322540662
lfoot 5.523534937681815 -11.915953415491991
ltoes -9.845153687269892
rfemur -22.52740225843824 3.1477517496196663 27.2304312526665
rtibia 52.73273530953247
rfoot -1.284208030260658 -6.307207624732777
rtoes -4.632167975348702
lowerback 13.070669887124199 -0.41436861185283524 -0.5256724121126364
upperback -0.4616973010638238 0.657617935196327 1.2313533433572366
thorax -8.160249438413693 0.7956061054097313 1.8194010508110927
lowerneck -18.6602672215059 -3.3733287782330272 -2.3589427904060196
upperneck 13.963135141188213 -4.744722564092132 2.888708277301245
head 7.4343519398899085 -2.3772793997668296 0.731020917159787
lclavicle 3.0724827264545893e-16 -4.3067221206564905e-16
lhumerus -42.684176112382985 -14.521668552424236 98.07348176013394
lradius 109.59131056542284
lwrist 32.13842796153767
lhand -25.876870869304312 3.1099670360403255
lfingers 7.125020000000001
lthumb 0.41564160244083953 33.00845846633016
rclavicle 3.0728743657241976e-16 -4.3064985682852227e-16
rhumerus -48.48403743200739 7.959398339606513 -96.48196674472707
rradius 104.1228613416551
rwrist -19.400267250459443
rhand -18.483707383390467 37.521194712562476
rfingers 7.125020000000001
rthumb 7.971658208003153 7.335973875376912
162
root 0.574298638379054 17.809256564805136 40.31948475511087 2.0870939079569997 1.5328631043276668 -0.14459815066843928
lfemur -14.455192636042776 0.07403798700629183 -21.99841197073449
ltibia 52.661247929191305
lfoot 5.083297450468637 -11.542083277007759
ltoes -9.91050047795429
rfemur -22.665780069592866 3.0476903498785592 27.167019204929396
rtibia 53.10904689001705
rfoot -0.9950736081585579 -5.971025448501511
rtoes -5.21306610426703
lowerback 13.05771254418572 -0.437625048515376 -0.5263601625450127
upperback -0.46614430013529257 0.5530673679175931 1.2576664304983662
thorax -8.2533438864132 0.6876186198165218 1.7101878837211122
lowerneck -18.71492899764758 -3.4037479997822175 -2.335350000793282
upperneck 13.902811196612948 -4.805181371722534 2.8286353829826045
head 7.435879847599821 -2.384879145420602 0.7248178318005161
lclavicle 3.0724827264545893e-16 -4.3067221206564905e-16
lhumerus -43.113736639764994 -14.487060808801587 98.12036650810191
lradius 109.80433992094127
lwrist 32.23377717983711
lhand -25.86876714231587 3.080803817172807
lfingers 7.125020000000001
lthumb 0.35286437461018993 32.89333720427386
rclavicle 3.0728743657241976e-16 -4.3064985682852227e-16
rhumerus -49.05054147336146 7.758574748686458 -96.47505543446165
rradius 103.87533664259541
rwrist -19.38016561431618
rhand -18.517107392978822 37.46550451906039
rfingers 7.125020000000001
rthumb 7.984636300746918 7.404941892196133
